<svg xmlns="http://www.w3.org/2000/svg" version="1.1" viewBox="0, 0, 100, 100" id="icon-loading">
  <g>
    <path d="M50,100 C22.386,100 0,77.614 -0,50 C-0,22.386 22.386,-0 50,-0 C77.614,-0 100,22.386 100,50 C100,77.614 77.614,100 50,100 z"/>
  </g>

  <g fill="none" stroke-width="14">
    <path d="M88.105,72 C75.955,93.045 49.045,100.255 28,88.105 C6.955,75.955 -0.255,49.045 11.895,28 C24.045,6.955 50.955,-0.255 72,11.895 C93.045,24.045 100.255,50.955 88.105,72 z" stroke-dasharray="184.3333 92.1668"/>
    <path d="M22.287,34 C31.124,18.695 50.695,13.451 66,22.287 C81.305,31.124 86.549,50.695 77.713,66 C68.876,81.305 49.305,86.549 34,77.713 C18.695,68.876 13.451,49.305 22.287,34 z" stroke-dasharray="33.5152 33.5152 33.5152 33.5152"/>
    <path d="M67.321,60 C61.798,69.566 49.566,72.843 40,67.321 C30.434,61.798 27.157,49.566 32.679,40 C38.202,30.434 50.434,27.157 60,32.679 C69.566,38.202 72.843,50.434 67.321,60 z" stroke-dasharray="0.0001 31.4206 31.4206 31.4206 31.4206"/>
  </g>

  <style>
    @keyframes s1{
      0%{ stroke-dasharray: 0.0001 0.0001 184.3333 92.1668; }
      33.3333%{ stroke-dasharray: 0.0001 184.3333 92.1668 0.0001; }
      100%{ stroke-dasharray: 184.3333 92.1668 184.3333 92.1668; }
    }
    #icon-loading path:nth-child(1){ animation: s1 1.57s infinite; }

    @keyframes s2{
      0%{ stroke-dasharray: 0.0001 0.0001 0.0001 0.0001 33.5152 33.5152; }
      25%{ stroke-dasharray: 0.0001 0.0001 33.5152 67.0304 0.0001 33.5152; }
      100%{ stroke-dasharray: 33.5152 33.5152 33.5152 33.5152 0.0001 0.0001; }
    }
    #icon-loading path:nth-child(2){ animation: s2 1.57s infinite; }

    @keyframes s3{
      0%{ stroke-dasharray: 0.0001 0.0001 0.001 20.9471 20.9471 20.9471 20.9471; }
      25%{ stroke-dasharray: 0.0001 0.0001 0.0001 62.8412 31.4206 31.4206 0.0001; }
      100%{ stroke-dasharray: 0.0001 31.4206 31.4206 31.4206 31.4206 0.0001 0.0001; }
    }
    #icon-loading path:nth-child(3){ animation: s3 1.57s infinite; }
  </style>
</svg>
